HIERARCHY
ROOT Hips
{
	OFFSET	0.00	0.00	0.00
	CHANNELS 6 Xposition Yposition Zposition Zrotation Xrotation Yrotation
	JOINT LeftHip
	{
		OFFSET	 3.430000	 0.000000	 0.000000
		CHANNELS 3 Zrotation Xrotation Yrotation
		JOINT LeftKnee
		{
			OFFSET	 0.000000	-18.469999	 0.000000
			CHANNELS 3 Zrotation Xrotation Yrotation
			JOINT LeftAnkle
			{
				OFFSET	 0.000000	-17.950001	 0.000000
				CHANNELS 3 Zrotation Xrotation Yrotation
				End Site 
				{
					OFFSET	 0.000000	-3.119996	 0.000000
				}
			}
		}
	}
	JOINT RightHip
	{
		OFFSET	-3.430000	 0.000000	 0.000000
		CHANNELS 3 Zrotation Xrotation Yrotation
		JOINT RightKnee
		{
			OFFSET	 0.000000	-18.809999	 0.000000
			CHANNELS 3 Zrotation Xrotation Yrotation
			JOINT RightAnkle
			{
				OFFSET	 0.000000	-17.570000	 0.000000
				CHANNELS 3 Zrotation Xrotation Yrotation
				End Site 
				{
					OFFSET	 0.000000	-3.250000	 0.000000
				}
			}
		}
	}
	JOINT Chest
	{
		OFFSET	 0.000000	 4.570000	 0.000000
		CHANNELS 3 Zrotation Xrotation Yrotation
		JOINT LeftCollar
		{
			OFFSET	 1.060000	 15.330000	 1.760000
			CHANNELS 3 Zrotation Xrotation Yrotation
			JOINT LeftShoulder
			{
				OFFSET	 5.810000	 0.000000	 0.000000
				CHANNELS 3 Zrotation Xrotation Yrotation
				JOINT LeftElbow
				{
					OFFSET	 0.000000	-12.080000	 0.000000
					CHANNELS 3 Zrotation Xrotation Yrotation
					JOINT LeftWrist
					{
						OFFSET	 0.000000	-9.820000	 0.000000
						CHANNELS 3 Zrotation Xrotation Yrotation
						End Site 
						{
							OFFSET	 0.000000	-7.369996	 0.000000
						}
					}
				}
			}
		}
		JOINT RightCollar
		{
			OFFSET	-1.060000	 15.330000	 1.760000
			CHANNELS 3 Zrotation Xrotation Yrotation
			JOINT RightShoulder
			{
				OFFSET	-6.060000	 0.000000	 0.000000
				CHANNELS 3 Zrotation Xrotation Yrotation
				JOINT RightElbow
				{
					OFFSET	 0.000000	-11.900000	 0.000000
					CHANNELS 3 Zrotation Xrotation Yrotation
					JOINT RightWrist
					{
						OFFSET	 0.000000	-9.520000	 0.000000
						CHANNELS 3 Zrotation Xrotation Yrotation
						End Site 
						{
							OFFSET	 0.000000	-7.140012	 0.000000
						}
					}
				}
			}
		}
		JOINT Neck
		{
			OFFSET	 0.000000	 17.620001	 0.000000
			CHANNELS 3 Zrotation Xrotation Yrotation
			JOINT Head
			{
				OFFSET	 0.000000	 5.190000	 0.000000
				CHANNELS 3 Zrotation Xrotation Yrotation
				End Site 
				{
					OFFSET	 0.000000	 4.140008	 0.000000
				}
			}
		}
	}
}

MOTION
Frames: 26
Frame Time: 0.033333
-42.0117 2.6104 -47.1767 -3.12203 2.16684 58.374 17.7854 -15.7402 15.8583 -0.832362 13.6221 4.49314 -17.9893 5.22124 -1.26324 -14.0639 3.79635 -23.7712 3.56305 5.27166 3.74808 6.86922 -5.41432 -7.16704 7.76236 -1.70123 1.02245 0 0 0 5.39052 -2.74042 6.02071 -18.2091 -21.6253 -10.4629 53.6027 -43.241 -10.9914 0 0 0 -10.7156 -3.84383 6.60021 4.97071 -9.30585 6.54957 -16.5762 -21.206 22.6915 0 0 0 -5.05019 11.9321 21.3429 
-42.0047 2.6122 -47.1741 -3.13871 2.17235 58.3742 17.8073 -15.7524 15.8594 -0.831275 13.629 4.48 -18.008 5.21047 -1.24906 -14.0439 3.82106 -23.7812 3.55426 5.24664 3.76028 6.87623 -5.43436 -7.16688 7.75892 -1.73692 1.02347 0 0 0 6.02874 -4.00202 7.88575 -19.3364 -22.5712 -11.583 55.5482 -44.8906 -10.3158 0 0 0 -10.713 -3.8823 6.55892 4.96451 -9.24882 6.61933 -16.5735 -21.2095 22.6791 0 0 0 -5.03044 12.0231 21.8615 
-42 2.6134 -47.1723 -3.14928 2.18268 58.3729 17.8246 -15.7614 15.8489 -0.842007 13.6336 4.48749 -18.0199 5.19867 -1.24713 -14.026 3.84492 -23.7984 3.54299 5.22715 3.83286 6.88205 -5.45655 -7.22069 7.75068 -1.76352 1.02599 0 0 0 6.61551 -4.97002 9.23151 -20.1099 -23.3534 -12.3733 57.1029 -46.051 -9.56018 0 0 0 -10.7172 -3.91138 6.52456 4.95436 -9.20339 6.66346 -16.5649 -21.2132 22.6725 0 0 0 -5.02471 12.1453 22.3122 
-41.9941 2.6142 -47.171 -3.15626 2.18842 58.3674 17.846 -15.7744 15.8482 -0.859387 13.6214 4.45927 -18.0272 5.20867 -1.19644 -14.0078 3.87771 -23.8041 3.53759 5.19399 3.88688 6.88439 -5.47211 -7.26298 7.74792 -1.78751 1.0327 0 0 0 7.10674 -5.9555 10.4756 -20.823 -23.9815 -13.0552 58.233 -46.8295 -9.04278 0 0 0 -10.7264 -3.93557 6.49378 4.95743 -9.16259 6.69926 -16.5646 -21.2306 22.6734 0 0 0 -5.01181 12.2396 22.7088 
-41.9841 2.6167 -47.171 -3.17467 2.19652 58.3682 17.8825 -15.7934 15.8365 -0.889129 13.6091 4.45029 -18.033 5.22104 -1.15841 -13.9709 3.924 -23.8331 3.51258 5.15078 3.96935 6.90128 -5.50421 -7.31571 7.74979 -1.8381 1.03453 0 0 0 8.31079 -7.58525 12.9269 -22.368 -25.1144 -14.5702 61.0632 -49.0253 -8.09192 0 0 0 -10.7457 -3.97369 6.4603 4.95508 -9.10128 6.74267 -16.5601 -21.258 22.6692 0 0 0 -5.01342 12.3699 23.4214 
-41.9766 2.6192 -47.171 -3.17908 2.20424 58.3755 17.9131 -15.7993 15.8175 -0.919307 13.5995 4.42788 -18.0466 5.22382 -1.11232 -13.9536 3.9858 -23.8599 3.49942 5.11452 4.05718 6.90415 -5.54838 -7.36952 7.76002 -1.88291 1.01105 0 0 0 9.4593 -9.16081 15.0891 -23.6769 -26.0773 -15.8014 62.9846 -50.3042 -7.26317 0 0 0 -10.7676 -4.00829 6.4325 4.94817 -9.05191 6.79127 -16.5651 -21.287 22.6512 0 0 0 -5.02934 12.5049 24.1046 
-41.969 2.6192 -47.1685 -3.18826 2.21214 58.3788 17.9488 -15.8048 15.7869 -0.96099 13.5973 4.41539 -18.0551 5.21771 -1.05859 -13.9308 4.04774 -23.8876 3.48305 5.078 4.13747 6.91375 -5.58622 -7.40516 7.79601 -1.95772 0.969066 0 0 0 10.451 -10.4091 16.7862 -24.5894 -26.8183 -16.6425 63.7674 -50.6667 -6.82253 0 0 0 -10.8099 -4.03247 6.41545 4.948 -9.00624 6.8385 -16.5827 -21.3163 22.618 0 0 0 -5.07233 12.7322 24.7637 
-41.964 2.6167 -47.1685 -3.17169 2.2186 58.3901 17.9591 -15.7882 15.737 -1.00822 13.5873 4.40306 -18.0499 5.20161 -1.00203 -13.9226 4.13575 -23.9261 3.47799 5.03873 4.22686 6.92218 -5.62476 -7.4552 7.85771 -2.01558 0.85613 0 0 0 11.1803 -11.425 17.99 -25.1822 -27.2847 -17.1494 63.2495 -50.2744 -7.31301 0 0 0 -10.8714 -4.06433 6.42112 4.94554 -8.96888 6.88194 -16.6055 -21.3469 22.5683 0 0 0 -5.17236 12.9015 25.3039 
-41.9615 2.6142 -47.1685 -3.15203 2.21767 58.3956 17.9711 -15.7732 15.6943 -1.05372 13.5888 4.40216 -18.0445 5.19058 -0.958832 -13.916 4.20908 -23.9615 3.46855 5.01942 4.31277 6.93277 -5.66208 -7.49859 7.94632 -2.07093 0.728276 0 0 0 11.5743 -11.8869 18.5587 -25.2853 -27.2897 -17.2948 61.5812 -49.2579 -8.37734 0 0 0 -10.9424 -4.06747 6.52551 4.93578 -8.98732 6.79258 -16.6146 -21.3712 22.5524 0 0 0 -5.29494 13.0388 25.6858 
-41.9565 2.6117 -47.171 -3.13381 2.20987 58.394 17.9826 -15.757 15.6638 -1.09416 13.5941 4.38456 -18.0316 5.17685 -0.90941 -13.9137 4.27397 -23.9856 3.46795 5.00782 4.34773 6.93999 -5.70092 -7.49357 8.0554 -2.13569 0.577001 0 0 0 11.7984 -12.0564 18.8988 -25.2921 -26.9581 -17.3652 58.9758 -47.8452 -10.1809 0 0 0 -11.0042 -4.06446 6.61411 4.91646 -9.014 6.69141 -16.6121 -21.3933 22.5518 0 0 0 -5.42588 13.131 26.0024 
-41.9489 2.6092 -47.1761 -3.13202 2.21686 58.3871 17.9824 -15.7483 15.6275 -1.1215 13.6278 4.39188 -18.0252 5.12229 -0.890356 -13.9212 4.32045 -24.026 3.46155 4.99691 4.38349 6.9616 -5.73449 -7.46698 8.17362 -2.21305 0.373379 0 0 0 11.6366 -11.372 18.4389 -24.9985 -26.7294 -17.134 55.6945 -45.9952 -12.1713 0 0 0 -11.0608 -4.03666 6.68476 4.89049 -9.06346 6.58244 -16.592 -21.406 22.5627 0 0 0 -5.56855 13.2258 26.2675 
-41.9414 2.6067 -47.1786 -3.12183 2.23419 58.3622 17.9702 -15.7436 15.6107 -1.14421 13.6741 4.38327 -18.0232 5.05714 -0.852519 -13.9446 4.35683 -24.0536 3.46363 4.98493 4.41704 6.97449 -5.74882 -7.43993 8.27464 -2.29829 0.185549 0 0 0 11.2284 -10.4411 17.6423 -24.5664 -26.3517 -16.7515 52.2696 -43.8469 -14.1381 0 0 0 -11.1014 -3.99461 6.72551 4.87773 -9.09466 6.4718 -16.5727 -21.4079 22.5845 0 0 0 -5.68317 13.3255 26.4666 
-41.9314 2.6041 -47.1836 -3.114 2.25672 58.3026 17.952 -15.7265 15.614 -1.16018 13.723 4.37585 -18.02 4.98031 -0.809557 -13.984 4.3836 -24.0674 3.47238 4.97625 4.4471 7.00153 -5.75727 -7.40034 8.35934 -2.3688 0.0372318 0 0 0 10.6099 -9.14263 16.383 -23.9513 -25.9987 -16.1855 48.7733 -41.5746 -16.2514 0 0 0 -11.137 -3.92729 6.73569 4.87256 -9.13023 6.3594 -16.5454 -21.3862 22.599 0 0 0 -5.76622 13.4481 26.6115 
-41.9188 2.6041 -47.1962 -3.09584 2.27101 58.2015 17.9322 -15.6916 15.6562 -1.16943 13.7707 4.35161 -18.0085 4.90328 -0.750647 -14.0258 4.40363 -24.0536 3.47296 4.96574 4.49681 7.03072 -5.754 -7.36923 8.42756 -2.3922 -0.063155 0 0 0 9.75596 -7.70749 14.8596 -23.1192 -25.4677 -15.4911 45.246 -39.3599 -18.5588 0 0 0 -11.1446 -3.86273 6.72354 4.85839 -9.16818 6.24063 -16.5097 -21.3608 22.6402 0 0 0 -5.8239 13.5209 26.7289 
-41.8987 2.6041 -47.2112 -3.0914 2.2991 58.0756 17.9088 -15.6608 15.7196 -1.17521 13.8195 4.3207 -18.0043 4.81846 -0.680305 -14.076 4.39494 -24.0323 3.46516 4.9501 4.53977 7.05887 -5.74621 -7.3039 8.46251 -2.4187 -0.0780695 0 0 0 8.77521 -5.98462 13.0467 -22.0148 -24.6689 -14.6535 41.9974 -37.6338 -20.5314 0 0 0 -11.1345 -3.7841 6.65578 4.845 -9.22552 6.16738 -16.4677 -21.2854 22.6831 0 0 0 -5.84543 13.6199 26.7783 
-41.8736 2.6016 -47.2313 -3.08894 2.3367 57.9169 17.8857 -15.6247 15.8034 -1.21888 13.8696 4.30577 -17.9591 4.72344 -0.605456 -14.1352 4.37301 -23.9861 3.46074 4.92675 4.58678 7.08201 -5.73457 -7.23641 8.4693 -2.4343 -0.0375339 0 0 0 7.69755 -4.16932 11.0502 -20.8357 -23.8131 -13.6358 38.9259 -36.0729 -22.6144 0 0 0 -11.1205 -3.69472 6.51921 4.84683 -9.25848 6.16502 -16.4392 -21.2285 22.7132 0 0 0 -5.85172 13.7321 26.8058 
-41.846 2.5966 -47.2514 -3.07952 2.37938 57.7482 17.8524 -15.5592 15.882 -1.23126 13.8902 4.29739 -17.9533 4.6355 -0.527927 -14.2065 4.35374 -23.9197 3.4573 4.89777 4.62583 7.11379 -5.70766 -7.17415 8.45037 -2.431 0.0465419 0 0 0 6.48421 -2.33071 8.872 -19.3929 -22.9163 -12.4335 36.3167 -34.5249 -24.0946 0 0 0 -11.1026 -3.60372 6.40552 4.85447 -9.2967 6.17522 -16.4216 -21.1652 22.7295 0 0 0 -5.846 13.8501 26.8199 
-41.8209 2.5941 -47.2715 -3.05521 2.41074 57.5786 17.8176 -15.4735 15.9705 -1.27667 13.9057 4.29727 -17.9066 4.55765 -0.464067 -14.2747 4.33217 -23.8339 3.44837 4.88845 4.66179 7.14039 -5.68701 -7.12736 8.41407 -2.40219 0.192469 0 0 0 5.30784 -1.04316 7.04687 -17.9525 -21.6846 -11.2972 34.3934 -33.26 -25.1486 0 0 0 -11.0777 -3.53321 6.31175 4.85743 -9.31271 6.18655 -16.4246 -21.0967 22.7263 0 0 0 -5.86141 14.0392 26.7833 
-41.7958 2.5891 -47.2891 -3.04131 2.43367 57.4086 17.7932 -15.3878 16.0644 -1.31324 13.9158 4.30487 -17.8647 4.48208 -0.415872 -14.3308 4.31138 -23.7342 3.44323 4.87373 4.68668 7.16445 -5.67924 -7.08063 8.38805 -2.35236 0.339987 0 0 0 4.16714 0.0601343 5.376 -16.506 -20.2745 -10.1194 32.6547 -32.1801 -25.8108 0 0 0 -11.06 -3.48058 6.24476 4.85077 -9.34228 6.20776 -16.4291 -21.0367 22.7168 0 0 0 -5.91297 14.2222 26.7405 
-41.7681 2.5866 -47.3067 -3.03516 2.46424 57.2598 17.7669 -15.331 16.1534 -1.33309 13.932 4.31878 -17.8365 4.4194 -0.38344 -14.3774 4.26857 -23.6388 3.42453 4.86123 4.70697 7.18687 -5.66861 -7.0407 8.32527 -2.28241 0.506402 0 0 0 2.96636 0.947764 3.93194 -14.9381 -18.5089 -8.8771 31.0157 -30.5272 -25.2606 0 0 0 -11.0251 -3.47048 6.17797 4.84193 -9.3534 6.2708 -16.4391 -20.9954 22.7124 0 0 0 -5.97601 14.395 26.622 
-41.743 2.5841 -47.3192 -3.03975 2.50326 57.1526 17.7383 -15.2975 16.2226 -1.344 13.9546 4.34538 -17.8206 4.3622 -0.384213 -14.426 4.22572 -23.568 3.41674 4.85166 4.72186 7.2031 -5.66764 -7.01466 8.24397 -2.20835 0.660891 0 0 0 1.96092 1.71893 2.74424 -13.5262 -16.9511 -7.6406 29.7524 -28.163 -23.4323 0 0 0 -10.9954 -3.46965 6.13699 4.84164 -9.32211 6.35375 -16.4699 -20.9987 22.6923 0 0 0 -6.03334 14.5815 26.4415 
-41.7254 2.5815 -47.3293 -3.04618 2.53551 57.074 17.7056 -15.2828 16.2806 -1.35222 13.9679 4.38634 -17.7904 4.33249 -0.408367 -14.4616 4.19224 -23.5012 3.41529 4.84409 4.73455 7.21162 -5.66849 -7.01839 8.15316 -2.12849 0.795949 0 0 0 1.08576 2.1721 1.82101 -12.3603 -15.6186 -6.47443 28.9909 -25.2924 -20.7376 0 0 0 -10.9556 -3.49408 6.12633 4.83646 -9.2655 6.4117 -16.4999 -21.0447 22.6885 0 0 0 -6.07237 14.7385 26.2523 
-41.7129 2.5815 -47.3343 -3.0623 2.56397 57.0252 17.679 -15.2796 16.338 -1.35547 13.9903 4.43769 -17.7618 4.30435 -0.47153 -14.4919 4.14332 -23.4425 3.41016 4.85315 4.73662 7.22734 -5.66464 -7.03292 8.05251 -2.02714 0.913271 0 0 0 0.351107 2.49616 1.19133 -11.2022 -14.3376 -5.10284 28.5006 -22.262 -17.4959 0 0 0 -10.9078 -3.5394 6.15899 4.81465 -9.24513 6.47223 -16.5174 -21.0524 22.6724 0 0 0 -6.0918 14.8632 25.9917 
-41.7054 2.5841 -47.3368 -3.08459 2.58864 56.9949 17.6549 -15.3092 16.3986 -1.37734 14.0415 4.48982 -17.7016 4.27461 -0.545317 -14.5131 4.09776 -23.404 3.4084 4.86146 4.74461 7.23241 -5.67158 -7.04958 7.95098 -1.9297 1.01488 0 0 0 -0.182894 2.61476 1.0563 -10.325 -13.2751 -4.01567 27.9708 -19.4773 -14.7415 0 0 0 -10.8674 -3.58737 6.19729 4.81179 -9.21411 6.53336 -16.548 -21.0812 22.6568 0 0 0 -6.09699 14.9771 25.6963 
-41.7003 2.5866 -47.3343 -3.11174 2.62112 56.9831 17.6287 -15.3576 16.4439 -1.36877 14.0766 4.5399 -17.6764 4.26805 -0.619117 -14.5337 4.05469 -23.3856 3.41193 4.85592 4.76835 7.22718 -5.66802 -7.0812 7.84439 -1.83756 1.09746 0 0 0 -0.517877 2.65795 1.16595 -9.64905 -12.3186 -3.20681 27.2168 -16.8604 -12.2891 0 0 0 -10.8312 -3.63181 6.25451 4.80555 -9.19447 6.60797 -16.5714 -21.1107 22.6277 0 0 0 -6.07632 14.9931 25.4292 
-41.6978 2.5891 -47.3343 -3.13538 2.65094 56.9921 17.6012 -15.4093 16.4784 -1.36627 14.1191 4.58159 -17.6381 4.25848 -0.69893 -14.5534 4.01387 -23.3746 3.41548 4.85915 4.79046 7.22307 -5.66988 -7.12383 7.73346 -1.74853 1.17845 0 0 0 -0.685655 2.68951 1.38613 -9.12576 -11.6772 -2.56441 26.5218 -14.4489 -10.2514 0 0 0 -10.794 -3.67178 6.32433 4.80275 -9.16893 6.67314 -16.5835 -21.1346 22.6108 0 0 0 -6.02502 14.9942 25.1609 
